<svg xmlns="http://www.w3.org/2000/svg" width="320" height="320" viewBox="0 0 320 320">
<g>
<path d="M 98.00 279.39 C81.93,276.87 71.20,271.86 60.88,262.07 C55.50,256.95 53.85,254.83 54.79,254.20 C55.50,253.72 62.02,252.26 69.29,250.95 C80.10,249.01 85.78,248.58 100.50,248.62 C123.92,248.68 134.36,250.49 165.50,259.93 C176.15,263.15 188.63,265.73 200.13,267.07 C212.49,268.51 240.17,267.72 250.48,265.64 L 257.45 264.23 L 254.48 266.65 C250.47,269.91 238.75,275.67 232.00,277.71 C227.16,279.18 218.95,279.40 163.50,279.58 C128.85,279.69 99.38,279.61 98.00,279.39 ZM 219.21 218.51 C196.98,212.26 182.43,196.92 177.47,174.50 C176.88,171.81 176.56,172.37 174.40,179.79 C168.39,200.46 157.34,213.63 144.35,215.57 C137.84,216.55 129.82,213.75 124.49,208.64 L 120.01 204.35 L 115.35 208.69 C109.82,213.84 102.09,216.54 95.65,215.57 C74.65,212.43 61.15,183.16 59.32,136.80 L 58.70 121.10 L 62.25 117.55 C65.19,114.61 66.52,114.00 70.00,114.00 C73.41,114.00 74.81,114.61 77.44,117.25 L 80.68 120.50 L 81.39 134.00 C82.61,157.49 85.11,170.81 90.48,182.50 C94.23,190.67 97.29,193.94 99.75,192.39 C104.07,189.66 107.57,178.12 108.64,163.00 C109.28,154.03 109.50,153.32 112.56,150.25 C115.19,147.61 116.59,147.00 120.00,147.00 C123.41,147.00 124.81,147.61 127.44,150.25 C130.50,153.32 130.72,154.03 131.36,163.00 C132.43,178.12 135.93,189.66 140.25,192.39 C145.23,195.53 153.38,177.91 156.50,157.30 C157.26,152.25 158.21,141.90 158.60,134.30 L 159.31 120.50 L 162.56 117.25 C165.19,114.61 166.59,114.00 170.00,114.00 C173.44,114.00 174.81,114.61 177.60,117.40 L 181.00 120.80 L 181.00 131.56 L 181.00 142.31 L 184.84 136.37 C199.19,114.17 225.03,104.88 249.48,113.14 C255.05,115.02 256.94,116.21 258.82,119.00 C263.13,125.41 259.77,134.20 252.51,135.56 C250.53,135.94 246.60,135.33 242.06,133.95 C228.60,129.86 217.00,132.91 207.67,142.99 C189.23,162.91 201.83,195.27 228.99,197.73 C233.21,198.12 236.70,197.66 242.35,195.98 C251.68,193.21 255.33,193.89 258.82,199.03 C261.70,203.28 261.32,208.97 257.89,212.62 C252.58,218.27 230.39,221.65 219.21,218.51 Z" fill="rgba(0,0,0,1)"/>
</g>
</svg>